<?xml version="1.0" encoding="UTF-8"?>
<svg xmlns="http://www.w3.org/2000/svg" xmlns:xlink="http://www.w3.org/1999/xlink" width="100px" height="246px" viewBox="0 0 100 246" version="1.1">
<g id="surface1">
<path style=" stroke:none;fill-rule:nonzero;fill:rgb(100%,100%,100%);fill-opacity:1;" d="M 0 62 C 12 61.960938 12 61.960938 17.070312 61.953125 C 20.554688 61.953125 24.039062 61.945312 27.53125 61.929688 C 30.070312 61.921875 32.609375 61.921875 35.148438 61.914062 C 36.492188 61.914062 37.828125 61.914062 39.171875 61.90625 C 46.046875 61.875 52.757812 61.992188 59.476562 63.664062 C 59.78125 63.734375 60.085938 63.8125 60.398438 63.890625 C 69.375 66.1875 77.898438 70.351562 84.867188 76.476562 C 85.015625 76.601562 85.164062 76.734375 85.320312 76.867188 C 90 80.9375 93.632812 85.609375 96.664062 91.007812 C 96.820312 91.28125 96.820312 91.28125 96.984375 91.5625 C 97.664062 92.820312 97.664062 92.820312 97.507812 93.625 C 96.796875 94.476562 95.976562 95.171875 95.125 95.875 C 94.9375 96.039062 94.75 96.195312 94.554688 96.351562 C 93.203125 97.484375 91.84375 98.59375 90.46875 99.695312 C 89.804688 100.242188 89.164062 100.796875 88.53125 101.367188 C 88.34375 101.53125 88.15625 101.695312 87.96875 101.867188 C 87.601562 102.1875 87.234375 102.515625 86.875 102.84375 C 86.367188 103.296875 86.367188 103.296875 85.460938 103.945312 C 84.203125 103.804688 83.617188 103.109375 82.734375 102.25 C 80.523438 100.164062 78.125 98.34375 75.664062 96.5625 C 75.257812 96.265625 75.257812 96.265625 74.84375 95.953125 C 72.351562 94.289062 69.460938 93.960938 66.53125 93.789062 C 66.078125 93.765625 66.078125 93.765625 65.617188 93.734375 C 65.023438 93.703125 64.429688 93.671875 63.835938 93.65625 C 61.625 93.539062 60.53125 92.84375 59.046875 91.242188 C 56.867188 88.945312 54.570312 87.429688 51.617188 86.226562 C 48.632812 84.992188 46.4375 83.203125 44.09375 81.023438 C 43.445312 80.421875 42.78125 79.851562 42.101562 79.28125 C 41.179688 78.492188 40.390625 77.640625 39.59375 76.734375 C 38.132812 75.09375 36.734375 73.59375 34.414062 73.445312 C 32.820312 73.648438 31.804688 74.90625 30.820312 76.070312 C 28.726562 78.546875 26.03125 80.46875 23.421875 82.382812 C 20.914062 84.226562 18.523438 86.15625 16.546875 88.578125 C 15.390625 89.90625 14.09375 90.664062 12.539062 91.46875 C 12.273438 91.609375 12.007812 91.742188 11.734375 91.890625 C 8.914062 93.359375 6.265625 94.265625 3.132812 94.78125 C 1.984375 94.96875 1.101562 95.234375 0 95.671875 C 0 84.5625 0 73.453125 0 62 Z M 0 62 "/>
<path style=" stroke:none;fill-rule:nonzero;fill:rgb(100%,100%,100%);fill-opacity:1;" d="M 0 176.617188 C 23.5 176.617188 47 176.617188 71.21875 176.617188 C 66.835938 180.976562 57.859375 182.507812 51.929688 183.40625 C 51.617188 183.460938 51.304688 183.507812 50.984375 183.554688 C 48.1875 183.96875 45.4375 184.078125 42.617188 184.070312 C 42.148438 184.070312 41.679688 184.070312 41.210938 184.070312 C 39.953125 184.070312 38.695312 184.0625 37.4375 184.0625 C 36.117188 184.054688 34.804688 184.054688 33.484375 184.054688 C 30.992188 184.054688 28.5 184.046875 26.007812 184.039062 C 23.171875 184.039062 20.335938 184.03125 17.5 184.03125 C 11.664062 184.023438 5.835938 184.015625 0 184 C 0 181.5625 0 179.125 0 176.617188 Z M 0 176.617188 "/>
<path style=" stroke:none;fill-rule:nonzero;fill:rgb(100%,100%,100%);fill-opacity:1;" d="M 34.71875 75.882812 C 36.101562 78.984375 37.570312 82.84375 36.625 86.257812 C 35.46875 88.96875 32.757812 90.546875 30.320312 92 C 29.640625 92.375 29.640625 92.375 29.375 93.015625 C 29.257812 94.6875 29.570312 95.976562 30.140625 97.523438 C 30.21875 97.742188 30.296875 97.960938 30.375 98.1875 C 31.085938 100.078125 32.046875 101.71875 33.234375 103.359375 C 33.875 104.3125 33.890625 104.625 33.828125 105.71875 C 27.476562 105.140625 20.921875 102.0625 16.234375 97.835938 C 15.320312 97.046875 15.320312 97.046875 14.242188 96.5625 C 13.539062 96.742188 13.539062 96.742188 12.835938 97.132812 C 12.570312 97.265625 12.304688 97.390625 12.023438 97.53125 C 11.75 97.671875 11.46875 97.820312 11.179688 97.96875 C 8.882812 99.125 6.890625 100 4.320312 100.34375 C 2.898438 100.585938 1.90625 101.046875 0.726562 101.875 C 0.296875 102.171875 0.296875 102.171875 0 102.171875 C -0.046875 101.5625 -0.0859375 100.945312 -0.109375 100.328125 C -0.132812 99.984375 -0.15625 99.640625 -0.171875 99.289062 C 0 98.335938 0 98.335938 0.757812 97.640625 C 1.882812 97.101562 2.75 96.960938 3.984375 96.835938 C 7.695312 96.335938 13.367188 94.296875 15.84375 91.34375 C 15.9375 91.179688 16.039062 91.023438 16.132812 90.859375 C 17.007812 89.570312 18.085938 88.679688 19.289062 87.703125 C 19.539062 87.492188 19.539062 87.492188 19.796875 87.28125 C 21.867188 85.585938 23.953125 83.90625 26.09375 82.289062 C 28.234375 80.65625 30.273438 79.007812 31.960938 76.898438 C 32.828125 75.9375 33.476562 75.820312 34.71875 75.882812 Z M 34.71875 75.882812 "/>
<path style=" stroke:none;fill-rule:nonzero;fill:rgb(100%,100%,100%);fill-opacity:1;" d="M 0 156.53125 C 30.75 156.53125 61.492188 156.53125 93.171875 156.53125 C 91.101562 159.773438 91.101562 159.773438 90.507812 160.664062 C 89.851562 160.773438 89.851562 160.773438 89.015625 160.773438 C 88.703125 160.773438 88.382812 160.773438 88.0625 160.78125 C 87.53125 160.773438 87.53125 160.773438 87 160.773438 C 86.445312 160.773438 86.445312 160.773438 85.875 160.773438 C 84.84375 160.773438 83.8125 160.773438 82.78125 160.765625 C 81.671875 160.765625 80.5625 160.765625 79.453125 160.765625 C 77.53125 160.765625 75.601562 160.765625 73.679688 160.757812 C 70.898438 160.75 68.117188 160.75 65.335938 160.75 C 60.820312 160.742188 56.304688 160.742188 51.789062 160.726562 C 47.40625 160.71875 43.023438 160.71875 38.632812 160.710938 C 38.367188 160.710938 38.09375 160.710938 37.8125 160.710938 C 36.460938 160.710938 35.109375 160.710938 33.75 160.710938 C 22.5 160.695312 11.25 160.679688 0 160.664062 C 0 159.296875 0 157.9375 0 156.53125 Z M 0 156.53125 "/>
<path style=" stroke:none;fill-rule:nonzero;fill:rgb(100%,100%,100%);fill-opacity:1;" d="M 0 169.523438 C 26.929688 169.523438 53.859375 169.523438 81.601562 169.523438 C 81.601562 169.71875 81.601562 169.914062 81.601562 170.117188 C 81.007812 170.625 80.414062 171.09375 79.78125 171.554688 C 79.53125 171.75 79.53125 171.75 79.273438 171.945312 C 78.765625 172.328125 78.257812 172.703125 77.742188 173.070312 C 77.5 173.273438 77.265625 173.46875 77.015625 173.679688 C 75.71875 174.523438 74.375 174.414062 72.867188 174.390625 C 72.398438 174.398438 72.398438 174.398438 71.921875 174.398438 C 70.875 174.398438 69.835938 174.390625 68.789062 174.382812 C 68.039062 174.382812 67.289062 174.382812 66.539062 174.382812 C 64.929688 174.390625 63.320312 174.382812 61.710938 174.375 C 59.375 174.367188 57.046875 174.367188 54.71875 174.359375 C 50.9375 174.359375 47.15625 174.351562 43.375 174.34375 C 39.703125 174.328125 36.03125 174.320312 32.359375 174.320312 C 32.015625 174.3125 32.015625 174.3125 31.671875 174.3125 C 30.539062 174.3125 29.398438 174.3125 28.265625 174.3125 C 18.84375 174.296875 9.421875 174.28125 0 174.25 C 0 172.695312 0 171.132812 0 169.523438 Z M 0 169.523438 "/>
<path style=" stroke:none;fill-rule:nonzero;fill:rgb(100%,100%,100%);fill-opacity:1;" d="M 0 163.023438 C 29.179688 163.023438 58.359375 163.023438 88.429688 163.023438 C 87.835938 163.710938 87.25 164.390625 86.648438 165.09375 C 86.429688 165.414062 86.429688 165.414062 86.203125 165.742188 C 85.617188 166.59375 85.171875 167.085938 84.148438 167.34375 C 83.234375 167.421875 82.34375 167.429688 81.429688 167.414062 C 81.085938 167.414062 80.734375 167.414062 80.375 167.414062 C 79.414062 167.421875 78.445312 167.414062 77.484375 167.398438 C 76.445312 167.390625 75.40625 167.398438 74.367188 167.398438 C 72.5625 167.398438 70.765625 167.390625 68.960938 167.382812 C 66.359375 167.367188 63.75 167.359375 61.148438 167.359375 C 56.921875 167.351562 52.695312 167.335938 48.476562 167.320312 C 44.367188 167.296875 40.265625 167.28125 36.164062 167.273438 C 35.90625 167.273438 35.65625 167.273438 35.390625 167.273438 C 34.125 167.273438 32.859375 167.265625 31.585938 167.265625 C 21.054688 167.242188 10.53125 167.210938 0 167.164062 C 0 165.796875 0 164.429688 0 163.023438 Z M 0 163.023438 "/>
<path style=" stroke:none;fill-rule:nonzero;fill:rgb(100%,100%,100%);fill-opacity:1;" d="M 5.640625 116.054688 C 7.859375 116.046875 10.078125 116.03125 12.304688 116.03125 C 13.335938 116.023438 14.367188 116.023438 15.398438 116.015625 C 16.585938 116.007812 17.78125 116 18.96875 116 C 19.335938 116 19.695312 115.992188 20.070312 115.992188 C 24.351562 115.992188 28.234375 116.523438 31.484375 119.523438 C 34.40625 123.03125 35.0625 127.304688 34.71875 131.710938 C 34.1875 135.234375 32.820312 138.351562 29.96875 140.578125 C 26.148438 142.953125 21.992188 142.992188 17.609375 142.96875 C 17.257812 142.96875 16.914062 142.96875 16.5625 142.96875 C 15.476562 142.96875 14.382812 142.960938 13.296875 142.960938 C 12.554688 142.953125 11.8125 142.953125 11.070312 142.953125 C 9.257812 142.953125 7.445312 142.945312 5.640625 142.9375 C 5.640625 142.15625 5.640625 141.382812 5.640625 140.578125 C 7.695312 140.28125 7.695312 140.28125 9.789062 139.984375 C 9.8125 137.34375 9.828125 134.703125 9.835938 132.0625 C 9.84375 130.828125 9.851562 129.601562 9.859375 128.375 C 9.867188 127.195312 9.875 126.007812 9.875 124.828125 C 9.875 124.375 9.882812 123.921875 9.882812 123.46875 C 9.890625 122.835938 9.890625 122.203125 9.890625 121.578125 C 9.898438 121.210938 9.898438 120.851562 9.898438 120.484375 C 9.867188 119.609375 9.867188 119.609375 9.390625 119.046875 C 8.679688 118.570312 8.0625 118.5625 7.210938 118.515625 C 6.921875 118.492188 6.625 118.476562 6.320312 118.453125 C 5.984375 118.4375 5.984375 118.4375 5.640625 118.421875 C 5.640625 117.640625 5.640625 116.859375 5.640625 116.054688 Z M 14.242188 118.421875 C 14.242188 125.734375 14.242188 133.046875 14.242188 140.578125 C 21.273438 140.796875 21.273438 140.796875 27.476562 137.84375 C 30.257812 134.414062 30.289062 130.289062 29.96875 126.101562 C 29.71875 124.914062 29.359375 123.914062 28.78125 122.851562 C 28.609375 122.523438 28.429688 122.195312 28.242188 121.851562 C 26.328125 119.570312 23.9375 118.898438 21.070312 118.421875 C 18.8125 118.421875 16.5625 118.421875 14.242188 118.421875 Z M 14.242188 118.421875 "/>
<path style=" stroke:none;fill-rule:nonzero;fill:rgb(100%,100%,100%);fill-opacity:1;" d="M 60.234375 116.054688 C 62.484375 116.039062 64.734375 116.023438 66.984375 116.015625 C 68.03125 116.007812 69.078125 116 70.125 115.992188 C 71.328125 115.976562 72.53125 115.976562 73.742188 115.96875 C 74.109375 115.96875 74.476562 115.960938 74.859375 115.960938 C 79.09375 115.953125 82.945312 116.585938 86.125 119.507812 C 89.234375 122.78125 89.492188 126.726562 89.40625 130.992188 C 89.265625 134.476562 88.054688 137.476562 85.492188 139.929688 C 80.664062 143.828125 73.789062 143.015625 67.96875 142.976562 C 67.21875 142.976562 66.46875 142.96875 65.71875 142.96875 C 63.890625 142.960938 62.0625 142.953125 60.234375 142.9375 C 60.234375 142.15625 60.234375 141.382812 60.234375 140.578125 C 60.515625 140.539062 60.789062 140.5 61.070312 140.460938 C 61.601562 140.382812 61.601562 140.382812 62.148438 140.296875 C 62.679688 140.21875 62.679688 140.21875 63.21875 140.140625 C 64.0625 140.078125 64.0625 140.078125 64.390625 139.6875 C 64.421875 139.039062 64.429688 138.382812 64.421875 137.734375 C 64.421875 137.523438 64.421875 137.320312 64.421875 137.109375 C 64.421875 136.429688 64.421875 135.75 64.421875 135.070312 C 64.421875 134.601562 64.421875 134.132812 64.421875 133.664062 C 64.421875 132.421875 64.414062 131.1875 64.414062 129.945312 C 64.40625 128.6875 64.40625 127.421875 64.40625 126.15625 C 64.40625 123.679688 64.398438 121.195312 64.390625 118.71875 C 62.335938 118.570312 62.335938 118.570312 60.234375 118.421875 C 60.234375 117.640625 60.234375 116.859375 60.234375 116.054688 Z M 68.84375 118.421875 C 68.84375 125.734375 68.84375 133.046875 68.84375 140.578125 C 75.8125 140.84375 75.8125 140.84375 81.90625 137.992188 C 84.523438 135.273438 84.96875 131.921875 84.929688 128.289062 C 84.757812 125.507812 84.039062 122.828125 81.953125 120.867188 C 78.03125 117.742188 73.882812 118.421875 68.84375 118.421875 Z M 68.84375 118.421875 "/>
<path style=" stroke:none;fill-rule:nonzero;fill:rgb(100%,100%,100%);fill-opacity:1;" d="M 54.304688 117.242188 C 54.5 117.4375 54.695312 117.632812 54.898438 117.828125 C 55.289062 117.148438 55.679688 116.46875 56.085938 115.765625 C 56.765625 115.765625 57.453125 115.765625 58.164062 115.765625 C 58.164062 119.171875 58.164062 122.585938 58.164062 126.101562 C 57.375 126.101562 56.59375 126.101562 55.789062 126.101562 C 55.71875 125.851562 55.65625 125.601562 55.585938 125.34375 C 54.859375 122.75 54.070312 120.90625 51.945312 119.195312 C 49.671875 117.992188 47.21875 117.773438 44.695312 118.265625 C 43.226562 118.734375 42.34375 119.4375 41.546875 120.78125 C 41.25 122.148438 41.320312 123.09375 42.078125 124.273438 C 44.453125 125.890625 47.359375 126.375 50.132812 126.953125 C 57.046875 128.476562 57.046875 128.476562 59.054688 131.46875 C 60.078125 133.351562 59.9375 136.085938 59.453125 138.140625 C 58.578125 140.28125 57.09375 141.796875 54.992188 142.757812 C 52.039062 143.953125 48.109375 144.078125 45.085938 143.070312 C 43.460938 142.367188 42.046875 141.351562 40.65625 140.28125 C 40.609375 140.507812 40.570312 140.742188 40.523438 140.976562 C 40.367188 141.71875 40.132812 142.273438 39.765625 142.9375 C 38.976562 142.9375 38.195312 142.9375 37.390625 142.9375 C 37.390625 139.234375 37.390625 135.53125 37.390625 131.710938 C 38.171875 131.710938 38.953125 131.710938 39.765625 131.710938 C 39.875 132.085938 39.984375 132.460938 40.09375 132.84375 C 41.09375 135.75 42.34375 138.132812 45.101562 139.6875 C 47.703125 140.84375 50.445312 140.984375 53.125 140 C 54.257812 139.398438 54.914062 138.46875 55.492188 137.328125 C 55.570312 136.15625 55.59375 135.28125 55.226562 134.171875 C 53.289062 132.070312 50.15625 131.5625 47.476562 130.960938 C 40.640625 129.390625 40.640625 129.390625 38.578125 127.28125 C 37.320312 125.179688 37 122.976562 37.578125 120.585938 C 38.328125 118.484375 39.382812 117.273438 41.382812 116.289062 C 45.78125 114.4375 50.21875 114.84375 54.304688 117.242188 Z M 54.304688 117.242188 "/>
<path style=" stroke:none;fill-rule:nonzero;fill:rgb(100%,100%,100%);fill-opacity:1;" d="M 0 151.210938 C 31.726562 151.210938 63.453125 151.210938 96.140625 151.210938 C 94.953125 153.570312 94.953125 153.570312 94.65625 153.867188 C 94.15625 153.898438 93.648438 153.90625 93.140625 153.90625 C 92.648438 153.90625 92.648438 153.90625 92.140625 153.90625 C 91.773438 153.90625 91.40625 153.90625 91.03125 153.90625 C 90.640625 153.90625 90.257812 153.90625 89.859375 153.90625 C 88.78125 153.90625 87.703125 153.90625 86.625 153.90625 C 85.460938 153.898438 84.296875 153.90625 83.140625 153.90625 C 81.125 153.90625 79.109375 153.898438 77.09375 153.898438 C 74.1875 153.898438 71.273438 153.898438 68.359375 153.898438 C 63.640625 153.898438 58.914062 153.890625 54.195312 153.890625 C 49.601562 153.890625 45.015625 153.890625 40.429688 153.882812 C 40.140625 153.882812 39.859375 153.882812 39.570312 153.882812 C 38.148438 153.882812 36.734375 153.882812 35.3125 153.882812 C 23.546875 153.882812 11.773438 153.875 0 153.867188 C 0 152.992188 0 152.117188 0 151.210938 Z M 0 151.210938 "/>
<path style=" stroke:none;fill-rule:nonzero;fill:rgb(100%,100%,100%);fill-opacity:1;" d="M 98.8125 95.96875 C 99.015625 96.382812 99.210938 96.796875 99.40625 97.210938 C 99.515625 97.4375 99.625 97.664062 99.742188 97.90625 C 100.046875 98.765625 100.195312 99.203125 100 100.109375 C 99.398438 100.8125 98.695312 101.375 97.976562 101.953125 C 97.773438 102.125 97.570312 102.289062 97.359375 102.46875 C 96.757812 102.960938 96.15625 103.453125 95.546875 103.945312 C 95.257812 104.1875 94.960938 104.429688 94.664062 104.671875 C 94.140625 105.101562 93.625 105.523438 93.101562 105.945312 C 92.171875 106.695312 91.265625 107.460938 90.359375 108.226562 C 88.640625 109.679688 86.90625 111.101562 85.164062 112.515625 C 84.03125 112.039062 83.273438 111.320312 82.382812 110.484375 C 82.0625 110.1875 81.742188 109.890625 81.421875 109.601562 C 81.257812 109.445312 81.09375 109.296875 80.921875 109.132812 C 78.648438 107.0625 76.3125 105.09375 73.796875 103.320312 C 73.609375 103.179688 73.421875 103.046875 73.226562 102.90625 C 71.171875 101.5 69.171875 101.296875 66.726562 101.179688 C 65.398438 101.007812 64.867188 100.898438 63.960938 99.890625 C 62.609375 97.601562 62.609375 97.601562 62.609375 96.5625 C 71.21875 96.023438 76.609375 99.601562 82.820312 104.960938 C 83.421875 105.492188 84.007812 106.023438 84.570312 106.601562 C 86.070312 106.15625 87.03125 105.242188 88.164062 104.226562 C 88.5625 103.875 88.960938 103.523438 89.367188 103.171875 C 89.554688 103 89.75 102.828125 89.953125 102.65625 C 90.929688 101.804688 91.9375 101 92.945312 100.1875 C 94.101562 99.242188 95.234375 98.28125 96.367188 97.3125 C 97.945312 95.96875 97.945312 95.96875 98.8125 95.96875 Z M 98.8125 95.96875 "/>
</g>
</svg>
