<?xml version="1.0" encoding="UTF-8" standalone="no"?>
<svg
   width="41.033531"
   height="50"
   viewBox="0 0 41.033528 50"
   version="1.1"
   id="svg11"
   role="img"
   aria-label="Davis School District logo"
   sodipodi:docname="dsd-mark-white.svg"
   inkscape:version="1.3 (0e150ed6c4, 2023-07-21)"
   xmlns:inkscape="http://www.inkscape.org/namespaces/inkscape"
   xmlns:sodipodi="http://sodipodi.sourceforge.net/DTD/sodipodi-0.dtd"
   xmlns="http://www.w3.org/2000/svg"
   xmlns:svg="http://www.w3.org/2000/svg">
  <defs
     id="defs11" />
  <sodipodi:namedview
     id="namedview11"
     pagecolor="#ffffff"
     bordercolor="#000000"
     borderopacity="0.25"
     inkscape:showpageshadow="2"
     inkscape:pageopacity="0.0"
     inkscape:pagecheckerboard="true"
     inkscape:deskcolor="#d1d1d1"
     inkscape:zoom="3.1585366"
     inkscape:cx="49.23166"
     inkscape:cy="4.5907336"
     inkscape:window-width="1920"
     inkscape:window-height="991"
     inkscape:window-x="-9"
     inkscape:window-y="-9"
     inkscape:window-maximized="1"
     inkscape:current-layer="surface1" />
  <g
     id="surface1"
     transform="translate(0.171875,-142.31931)">
    <g
       id="g1"
       transform="matrix(0.40863315,0,0,0.40863315,-0.10164118,117.02397)">
      <path
         style="fill:#ffffff;fill-opacity:1;fill-rule:nonzero;stroke:none"
         d="m 0,62 c 12,-0.03906 12,-0.03906 17.070312,-0.04687 3.484376,0 6.96875,-0.0078 10.460938,-0.02344 2.539062,-0.0078 5.078125,-0.0078 7.617188,-0.01563 1.34375,0 2.679687,0 4.023437,-0.0078 6.875,-0.03125 13.585937,0.08594 20.304687,1.757812 0.304688,0.07031 0.609376,0.148438 0.921876,0.226563 8.976562,2.296875 17.5,6.460937 24.46875,12.585937 0.148437,0.125 0.296874,0.257813 0.453124,0.390626 4.679688,4.070312 8.3125,8.742187 11.34375,14.140624 0.15625,0.273438 0.15625,0.273438 0.320313,0.554688 0.679687,1.257812 0.679687,1.257812 0.523437,2.0625 -0.710937,0.851562 -1.53125,1.546875 -2.382812,2.25 -0.1875,0.164062 -0.375,0.320312 -0.570312,0.476562 -1.351563,1.132813 -2.710938,2.242188 -4.085938,3.34375 -0.664062,0.546878 -1.304688,1.101568 -1.9375,1.671878 -0.1875,0.16406 -0.375,0.32812 -0.5625,0.5 -0.367188,0.32031 -0.734375,0.64844 -1.09375,0.97656 -0.507812,0.45313 -0.507812,0.45313 -1.414062,1.10156 -1.257813,-0.14062 -1.84375,-0.83593 -2.726563,-1.69531 -2.210937,-2.08594 -4.609375,-3.90625 -7.070313,-5.6875 -0.40625,-0.296875 -0.40625,-0.296875 -0.820312,-0.609375 -2.492188,-1.664063 -5.382812,-1.992187 -8.3125,-2.164063 -0.453125,-0.02344 -0.453125,-0.02344 -0.914062,-0.05469 -0.59375,-0.03125 -1.1875,-0.0625 -1.78125,-0.07813 C 61.625,93.539062 60.53125,92.84375 59.046875,91.242188 56.867188,88.945312 54.570312,87.429688 51.617188,86.226562 48.632812,84.992188 46.4375,83.203125 44.09375,81.023438 43.445312,80.421875 42.78125,79.851562 42.101562,79.28125 41.179688,78.492188 40.390625,77.640625 39.59375,76.734375 38.132812,75.09375 36.734375,73.59375 34.414062,73.445312 c -1.59375,0.203126 -2.609374,1.460938 -3.59375,2.625 -2.09375,2.476563 -4.789062,4.398438 -7.398437,6.3125 -2.507813,1.84375 -4.898437,3.773438 -6.875,6.195313 -1.15625,1.328125 -2.453125,2.085937 -4.007813,2.890625 -0.265624,0.140625 -0.53125,0.273438 -0.804687,0.421875 -2.820313,1.46875 -5.46875,2.375 -8.601563,2.890625 C 1.984375,94.96875 1.101562,95.234375 0,95.671875 0,84.5625 0,73.453125 0,62 Z m 0,0"
         id="path1" />
      <path
         style="fill:#ffffff;fill-opacity:1;fill-rule:nonzero;stroke:none"
         d="m 0,176.61719 c 23.5,0 47,0 71.21875,0 -4.382812,4.35937 -13.359375,5.89062 -19.289062,6.78906 -0.3125,0.0547 -0.625,0.10156 -0.945313,0.14844 -2.796875,0.41406 -5.546875,0.52343 -8.367187,0.51562 -0.46875,0 -0.9375,0 -1.40625,0 -1.257813,0 -2.515626,-0.008 -3.773438,-0.008 -1.320312,-0.008 -2.632812,-0.008 -3.953125,-0.008 -2.492187,0 -4.984375,-0.008 -7.476563,-0.0156 -2.835937,0 -5.671874,-0.008 -8.507812,-0.008 C 11.664062,184.02344 5.835938,184.01562 0,184 c 0,-2.4375 0,-4.875 0,-7.38281 z m 0,0"
         id="path2" />
      <path
         style="fill:#ffffff;fill-opacity:1;fill-rule:nonzero;stroke:none"
         d="m 34.71875,75.882812 c 1.382812,3.101563 2.851562,6.960938 1.90625,10.375 C 35.46875,88.96875 32.757812,90.546875 30.320312,92 c -0.679687,0.375 -0.679687,0.375 -0.945312,1.015625 -0.117188,1.671875 0.195312,2.960937 0.765625,4.507813 0.07813,0.21875 0.15625,0.4375 0.234375,0.664062 0.710938,1.89063 1.671875,3.53125 2.859375,5.17188 0.640625,0.95312 0.65625,1.26562 0.59375,2.35937 -6.351563,-0.57812 -12.90625,-3.65625 -17.59375,-7.882812 -0.914063,-0.789063 -0.914063,-0.789063 -1.992187,-1.273438 -0.703126,0.179688 -0.703126,0.179688 -1.40625,0.570312 -0.265626,0.132813 -0.53125,0.257813 -0.8125,0.398438 C 11.75,97.671875 11.46875,97.820312 11.179688,97.96875 8.882812,99.125 6.890625,100 4.320312,100.34375 2.898438,100.58594 1.90625,101.04688 0.726562,101.875 0.296875,102.17188 0.296875,102.17188 0,102.17188 -0.046875,101.5625 -0.0859375,100.94531 -0.109375,100.32813 -0.132812,99.984375 -0.15625,99.640625 -0.171875,99.289062 0,98.335938 0,98.335938 0.757812,97.640625 1.882812,97.101562 2.75,96.960938 3.984375,96.835938 c 3.710937,-0.5 9.382813,-2.539063 11.859375,-5.492188 0.09375,-0.164062 0.195312,-0.320312 0.289062,-0.484375 0.875,-1.289063 1.953126,-2.179687 3.15625,-3.15625 0.25,-0.210937 0.25,-0.210937 0.507813,-0.421875 2.070313,-1.695312 4.15625,-3.375 6.296875,-4.992188 2.140625,-1.632812 4.179688,-3.28125 5.867188,-5.390624 0.867187,-0.960938 1.515624,-1.078126 2.757812,-1.015626 z m 0,0"
         id="path3" />
      <path
         style="fill:#ffffff;fill-opacity:1;fill-rule:nonzero;stroke:none"
         d="m 0,156.53125 c 30.75,0 61.492188,0 93.171875,0 -2.070313,3.24219 -2.070313,3.24219 -2.664063,4.13281 -0.65625,0.10938 -0.65625,0.10938 -1.492187,0.10938 -0.3125,0 -0.632813,0 -0.953125,0.008 -0.53125,-0.008 -0.53125,-0.008 -1.0625,-0.008 -0.554688,0 -0.554688,0 -1.125,0 -1.03125,0 -2.0625,0 -3.09375,-0.008 -1.109375,0 -2.21875,0 -3.328125,0 -1.921875,0 -3.851563,0 -5.773437,-0.008 -2.78125,-0.008 -5.5625,-0.008 -8.34375,-0.008 -4.515626,-0.008 -9.03125,-0.008 -13.546876,-0.0234 -4.382812,-0.008 -8.765624,-0.008 -13.15625,-0.0156 -0.265624,0 -0.539062,0 -0.820312,0 -1.351562,0 -2.703125,0 -4.0625,0 -11.25,-0.0156 -22.5,-0.0312 -33.75,-0.0469 0,-1.36719 0,-2.72656 0,-4.13281 z m 0,0"
         id="path4" />
      <path
         style="fill:#ffffff;fill-opacity:1;fill-rule:nonzero;stroke:none"
         d="m 0,169.52344 c 26.929688,0 53.859375,0 81.601562,0 0,0.19531 0,0.39062 0,0.59375 -0.59375,0.50781 -1.1875,0.97656 -1.820312,1.4375 -0.25,0.19531 -0.25,0.19531 -0.507812,0.39062 -0.507813,0.38281 -1.015626,0.75781 -1.53125,1.125 -0.242188,0.20313 -0.476563,0.39844 -0.726563,0.60938 -1.296875,0.84375 -2.640625,0.73437 -4.148437,0.71093 -0.46875,0.008 -0.46875,0.008 -0.945313,0.008 -1.046875,0 -2.085937,-0.008 -3.132813,-0.0156 -0.75,0 -1.5,0 -2.25,0 -1.609374,0.008 -3.21875,0 -4.828124,-0.008 -2.335938,-0.008 -4.664063,-0.008 -6.992188,-0.0156 -3.78125,0 -7.5625,-0.008 -11.34375,-0.0156 -3.671875,-0.0156 -7.34375,-0.0234 -11.015625,-0.0234 -0.34375,-0.008 -0.34375,-0.008 -0.6875,-0.008 -1.132813,0 -2.273437,0 -3.40625,0 C 18.84375,174.29687 9.421875,174.28125 0,174.25 c 0,-1.55469 0,-3.11719 0,-4.72656 z m 0,0"
         id="path5" />
      <path
         style="fill:#ffffff;fill-opacity:1;fill-rule:nonzero;stroke:none"
         d="m 0,163.02344 c 29.179688,0 58.359375,0 88.429688,0 -0.59375,0.6875 -1.179688,1.36718 -1.78125,2.07031 -0.21875,0.32031 -0.21875,0.32031 -0.445313,0.64844 -0.585937,0.85156 -1.03125,1.34375 -2.054687,1.60156 -0.914063,0.0781 -1.804688,0.0859 -2.71875,0.0703 -0.34375,0 -0.695313,0 -1.054688,0 -0.960938,0.008 -1.929688,0 -2.890625,-0.0156 -1.039063,-0.008 -2.078125,0 -3.117187,0 -1.804688,0 -3.601563,-0.008 -5.40625,-0.0156 -2.601563,-0.0156 -5.210938,-0.0234 -7.8125,-0.0234 -4.226563,-0.008 -8.453126,-0.0234 -12.671876,-0.0391 -4.109374,-0.0234 -8.210937,-0.0391 -12.3125,-0.0469 -0.257812,0 -0.507812,0 -0.773437,0 -1.265625,0 -2.53125,-0.008 -3.804687,-0.008 C 21.054688,167.24219 10.53125,167.21094 0,167.16406 c 0,-1.36719 0,-2.73437 0,-4.14062 z m 0,0"
         id="path6" />
      <path
         style="fill:#ffffff;fill-opacity:1;fill-rule:nonzero;stroke:none"
         d="m 5.640625,116.05469 c 2.21875,-0.008 4.4375,-0.0234 6.664063,-0.0234 1.03125,-0.008 2.0625,-0.008 3.09375,-0.0156 1.1875,-0.008 2.382812,-0.0156 3.570312,-0.0156 0.367188,0 0.726562,-0.008 1.101562,-0.008 4.28125,0 8.164063,0.53125 11.414063,3.53125 2.921875,3.50781 3.578125,7.78125 3.234375,12.1875 -0.53125,3.52343 -1.898438,6.64062 -4.75,8.86718 -3.820312,2.375 -7.976562,2.41407 -12.359375,2.39063 -0.351563,0 -0.695313,0 -1.046875,0 -1.085938,0 -2.179688,-0.008 -3.265625,-0.008 -0.742187,-0.008 -1.484375,-0.008 -2.226563,-0.008 -1.8125,0 -3.625,-0.008 -5.429687,-0.0156 0,-0.78125 0,-1.55469 0,-2.35938 2.054687,-0.29687 2.054687,-0.29687 4.148437,-0.59375 0.023438,-2.64062 0.039063,-5.28125 0.046876,-7.92187 0.00781,-1.23438 0.015624,-2.46094 0.023437,-3.6875 0.00781,-1.17969 0.015625,-2.36719 0.015625,-3.54687 0,-0.45313 0.00781,-0.90625 0.00781,-1.35938 0.00781,-0.63281 0.00781,-1.26562 0.00781,-1.89062 0.00781,-0.36719 0.00781,-0.72657 0.00781,-1.09375 -0.03125,-0.875 -0.03125,-0.875 -0.507813,-1.4375 -0.710937,-0.47657 -1.328125,-0.48438 -2.179687,-0.53125 -0.289063,-0.0234 -0.585938,-0.0391 -0.890626,-0.0625 -0.335937,-0.0156 -0.335937,-0.0156 -0.679687,-0.0312 0,-0.78125 0,-1.5625 0,-2.36719 z m 8.601563,2.36719 c 0,7.3125 0,14.62499 0,22.15624 7.03125,0.21875 7.03125,0.21875 13.234374,-2.73437 2.78125,-3.42969 2.8125,-7.55469 2.492188,-11.74219 -0.25,-1.1875 -0.609375,-2.1875 -1.1875,-3.25 -0.171875,-0.32812 -0.351562,-0.65625 -0.539062,-1 -1.914063,-2.28125 -4.304688,-2.95312 -7.171876,-3.42968 -2.257812,0 -4.507812,0 -6.828124,0 z m 0,0"
         id="path7" />
      <path
         style="fill:#ffffff;fill-opacity:1;fill-rule:nonzero;stroke:none"
         d="m 60.234375,116.05469 c 2.25,-0.0156 4.5,-0.0312 6.75,-0.0391 1.046875,-0.008 2.09375,-0.0156 3.140625,-0.0234 1.203125,-0.0156 2.40625,-0.0156 3.617188,-0.0234 0.367187,0 0.734374,-0.008 1.117187,-0.008 4.234375,-0.008 8.085937,0.625 11.265625,3.54687 3.109375,3.27344 3.367188,7.21875 3.28125,11.48438 -0.140625,3.48437 -1.351562,6.48437 -3.914062,8.9375 -4.828126,3.89843 -11.703126,3.08593 -17.523438,3.04687 -0.75,0 -1.5,-0.008 -2.25,-0.008 -1.828125,-0.008 -3.65625,-0.0156 -5.484375,-0.0312 0,-0.78125 0,-1.55469 0,-2.35938 0.28125,-0.0391 0.554687,-0.0781 0.835937,-0.11718 0.53125,-0.0781 0.53125,-0.0781 1.078126,-0.16407 0.53125,-0.0781 0.53125,-0.0781 1.070312,-0.15625 0.84375,-0.0625 0.84375,-0.0625 1.171875,-0.45312 0.03125,-0.64844 0.03906,-1.30469 0.03125,-1.95313 0,-0.21093 0,-0.41406 0,-0.625 0,-0.67968 0,-1.35937 0,-2.03906 0,-0.46875 0,-0.9375 0,-1.40625 0,-1.24219 -0.0078,-2.47656 -0.0078,-3.71875 -0.0078,-1.25781 -0.0078,-2.52343 -0.0078,-3.78906 0,-2.47656 -0.0078,-4.96094 -0.01563,-7.4375 -2.054687,-0.14844 -2.054687,-0.14844 -4.15625,-0.29687 0,-0.78125 0,-1.5625 0,-2.36719 z m 8.609375,2.36719 c 0,7.3125 0,14.62499 0,22.15624 6.96875,0.26563 6.96875,0.26563 13.0625,-2.58593 2.617188,-2.71875 3.0625,-6.07032 3.023438,-9.70313 -0.171876,-2.78125 -0.890626,-5.46093 -2.976563,-7.42187 -3.921875,-3.125 -8.070313,-2.44531 -13.109375,-2.44531 z m 0,0"
         id="path8" />
      <path
         style="fill:#ffffff;fill-opacity:1;fill-rule:nonzero;stroke:none"
         d="m 54.304688,117.24219 c 0.195312,0.19531 0.390624,0.39062 0.59375,0.58594 0.390624,-0.67969 0.78125,-1.35938 1.1875,-2.0625 0.679687,0 1.367187,0 2.078124,0 0,3.40625 0,6.82031 0,10.33593 -0.789062,0 -1.570312,0 -2.375,0 -0.07031,-0.25 -0.132812,-0.5 -0.203124,-0.75781 -0.726563,-2.59375 -1.515626,-4.4375 -3.640626,-6.14844 -2.273437,-1.20312 -4.726562,-1.42187 -7.25,-0.92968 -1.46875,0.46875 -2.351562,1.17187 -3.148437,2.51562 -0.296875,1.36719 -0.226563,2.3125 0.53125,3.49219 2.375,1.61719 5.28125,2.10156 8.054687,2.67969 6.914063,1.52343 6.914063,1.52343 8.921876,4.51562 1.023437,1.88281 0.882812,4.61719 0.398437,6.67187 -0.875,2.14063 -2.359375,3.65625 -4.460937,4.61719 -2.953126,1.19531 -6.882813,1.32031 -9.90625,0.3125 -1.625,-0.70312 -3.039063,-1.71875 -4.429688,-2.78906 -0.04687,0.22656 -0.08594,0.46094 -0.132812,0.69531 -0.15625,0.74219 -0.390626,1.29688 -0.757813,1.96094 -0.789063,0 -1.570313,0 -2.375,0 0,-3.70313 0,-7.40625 0,-11.22656 0.78125,0 1.5625,0 2.375,0 0.109375,0.375 0.21875,0.75 0.328125,1.13281 1,2.90625 2.25,5.28906 5.007812,6.84375 2.601563,1.15625 5.34375,1.29687 8.023438,0.3125 1.132812,-0.60156 1.789062,-1.53125 2.367188,-2.67188 0.07812,-1.17187 0.101562,-2.04687 -0.265626,-3.15625 -1.9375,-2.10156 -5.070312,-2.60937 -7.75,-3.21093 -6.835937,-1.57032 -6.835937,-1.57032 -8.898437,-3.67969 -1.257813,-2.10156 -1.578125,-4.30469 -1,-6.69531 0.75,-2.10156 1.804687,-3.3125 3.804687,-4.29688 4.398438,-1.85156 8.835938,-1.44531 12.921876,0.95313 z m 0,0"
         id="path9" />
      <path
         style="fill:#ffffff;fill-opacity:1;fill-rule:nonzero;stroke:none"
         d="m 0,151.21094 c 31.726562,0 63.453125,0 96.140625,0 -1.1875,2.35937 -1.1875,2.35937 -1.484375,2.65625 -0.5,0.0312 -1.007812,0.0391 -1.515625,0.0391 -0.492187,0 -0.492187,0 -1,0 -0.367187,0 -0.734375,0 -1.109375,0 -0.390625,0 -0.773438,0 -1.171875,0 -1.078125,0 -2.15625,0 -3.234375,0 -1.164062,-0.008 -2.328125,0 -3.484375,0 -2.015625,0 -4.03125,-0.008 -6.046875,-0.008 -2.90625,0 -5.820312,0 -8.734375,0 -4.71875,0 -9.445313,-0.008 -14.164063,-0.008 -4.59375,0 -9.179687,0 -13.765624,-0.008 -0.289063,0 -0.570313,0 -0.859376,0 -1.421874,0 -2.835937,0 -4.257812,0 -11.765625,0 -23.539062,-0.008 -35.3125,-0.0156 0,-0.875 0,-1.75 0,-2.65625 z m 0,0"
         id="path10" />
      <path
         style="fill:#ffffff;fill-opacity:1;fill-rule:nonzero;stroke:none"
         d="m 98.8125,95.96875 c 0.203125,0.414062 0.398438,0.828125 0.59375,1.242188 0.109375,0.226562 0.21875,0.453124 0.335938,0.695312 0.304692,0.859375 0.453122,1.296875 0.257812,2.20313 -0.601562,0.70312 -1.304688,1.26562 -2.023438,1.84375 -0.203124,0.17187 -0.40625,0.33593 -0.617187,0.51562 -0.601563,0.49219 -1.203125,0.98438 -1.8125,1.47656 -0.289063,0.24219 -0.585937,0.48438 -0.882813,0.72657 -0.523437,0.42968 -1.039062,0.85156 -1.5625,1.27343 -0.929687,0.75 -1.835937,1.51563 -2.742187,2.28125 -1.71875,1.45313 -3.453125,2.875 -5.195313,4.28907 -1.132812,-0.47657 -1.890624,-1.19532 -2.78125,-2.03125 -0.320312,-0.29688 -0.640624,-0.59375 -0.960937,-0.88282 -0.164063,-0.15625 -0.328125,-0.30468 -0.5,-0.46875 -2.273437,-2.07031 -4.609375,-4.03906 -7.125,-5.8125 -0.1875,-0.14062 -0.375,-0.27343 -0.570313,-0.41406 -2.054687,-1.40625 -4.054687,-1.60937 -6.5,-1.72656 -1.328124,-0.17188 -1.859374,-0.28125 -2.765624,-1.289065 -1.351563,-2.289063 -1.351563,-2.289063 -1.351563,-3.328125 8.609375,-0.539062 14,3.039062 20.210937,8.39844 0.601563,0.53125 1.1875,1.0625 1.75,1.64062 1.5,-0.44531 2.460938,-1.35937 3.59375,-2.375 0.398438,-0.35156 0.796876,-0.70312 1.203126,-1.05468 C 89.554688,103 89.75,102.82813 89.953125,102.65625 90.929688,101.80469 91.9375,101 92.945312,100.1875 c 1.15625,-0.945312 2.289063,-1.90625 3.421876,-2.875 1.578124,-1.34375 1.578124,-1.34375 2.445312,-1.34375 z m 0,0"
         id="path11" />
    </g>
  </g>
</svg>
