<?xml version="1.0" encoding="UTF-8" standalone="no"?>
<svg
   width="50"
   height="50"
   viewBox="0 0 50 50"
   version="1.1"
   id="svg1"
   role="img"
   aria-label="GitHub logo"
   sodipodi:docname="github.svg"
   inkscape:version="1.3 (0e150ed6c4, 2023-07-21)"
   xmlns:inkscape="http://www.inkscape.org/namespaces/inkscape"
   xmlns:sodipodi="http://sodipodi.sourceforge.net/DTD/sodipodi-0.dtd"
   xmlns="http://www.w3.org/2000/svg"
   xmlns:svg="http://www.w3.org/2000/svg">
  <defs
     id="defs1" />
  <sodipodi:namedview
     id="namedview1"
     pagecolor="#ffffff"
     bordercolor="#000000"
     borderopacity="0.25"
     inkscape:showpageshadow="2"
     inkscape:pageopacity="0.0"
     inkscape:pagecheckerboard="true"
     inkscape:deskcolor="#d1d1d1"
     inkscape:zoom="16.1875"
     inkscape:cx="31.011583"
     inkscape:cy="28.07722"
     inkscape:window-width="1920"
     inkscape:window-height="991"
     inkscape:window-x="-9"
     inkscape:window-y="-9"
     inkscape:window-maximized="1"
     inkscape:current-layer="svg1" />
  <path
     d="M 25.034749,0 C 11.211395,0 0,11.209309 0,25.034749 0,36.095936 7.1724556,45.479794 17.121682,48.79064 c 1.249651,0.231571 1.65438,-0.544506 1.65438,-1.203755 V 42.92625 C 11.812229,44.440852 10.3623,39.972149 10.3623,39.972149 9.2232188,37.07855 7.5813565,36.308731 7.5813565,36.308731 5.309453,34.75449 7.7545135,34.78787 7.7545135,34.78787 c 2.5139065,0.175243 3.8365755,2.580665 3.8365755,2.580665 2.232265,3.826145 5.856045,2.720443 7.285112,2.079971 0.223226,-1.616828 0.872044,-2.722529 1.589706,-3.346312 -5.5598,-0.6363 -11.4054141,-2.783029 -11.4054141,-12.373424 0,-2.735047 0.9784411,-4.967312 2.5785791,-6.719744 -0.258692,-0.632128 -1.116132,-3.179413 0.244089,-6.625864 0,0 2.102919,-0.6717656 6.886642,2.566062 1.996521,-0.554937 4.136992,-0.832405 6.264946,-0.842837 2.127954,0.01043 4.270511,0.2879 6.271205,0.842837 4.77955,-3.2378276 6.878297,-2.566062 6.878297,-2.566062 1.362308,3.448537 0.504867,5.995823 0.246175,6.625864 1.606396,1.752432 2.576493,3.986784 2.576493,6.719744 0,9.615429 -5.856045,11.732952 -11.430449,12.352562 0.897078,0.776077 1.716966,2.299024 1.716966,4.635601 v 6.869952 c 0,0.665508 0.400556,1.447843 1.67107,1.201668 C 42.905387,45.473535 50.069498,36.091763 50.069498,25.034749 50.069498,11.209309 38.860189,0 25.034749,0 Z"
     id="path1"
     style="stroke-width:2.08623" />
</svg>
